<?xml version="1.0" encoding="UTF-8"?>
<!-- Generator: Adobe Illustrator 28.1.0, SVG Export Plug-In . SVG Version: 6.00 Build 0)  -->
<svg version="1.1" id="Layer_1" xmlns="http://www.w3.org/2000/svg" xmlns:xlink="http://www.w3.org/1999/xlink" x="0px" y="0px" viewBox="0 0 321.1 60" style="enable-background:new 0 0 321.1 60;" xml:space="preserve">
<style type="text/css">
	.st0{fill:#FFFFFF;}
	.st1{fill-rule:evenodd;clip-rule:evenodd;fill:#FFFFFF;}
	.st2{fill-rule:evenodd;clip-rule:evenodd;fill:#FFFFFF;filter:url(#Adobe_OpacityMaskFilter);}
	.st3{mask:url(#mask0_1263_1932_00000173125103816486295380000016982419195324637885_);}
	
		.st4{fill-rule:evenodd;clip-rule:evenodd;fill:#FFFFFF;filter:url(#Adobe_OpacityMaskFilter_00000134945719328136459440000010692345155459211166_);}
	.st5{mask:url(#mask1_1263_1932_00000054237710931910298380000010930080250495150999_);}
	
		.st6{fill-rule:evenodd;clip-rule:evenodd;fill:#FFFFFF;filter:url(#Adobe_OpacityMaskFilter_00000002364062943414365570000004761606238631754412_);}
	.st7{mask:url(#mask2_1263_1932_00000126305517788140049790000017890113333726709906_);}
	
		.st8{fill-rule:evenodd;clip-rule:evenodd;fill:#FFFFFF;filter:url(#Adobe_OpacityMaskFilter_00000058563561259036353190000008731530855364294551_);}
	.st9{mask:url(#mask3_1263_1932_00000038407373708424257050000015802909286605128862_);}
</style>
<path class="st0" d="M40.9,23.8c1.3,1.4,2,3.4,2,6v19.8h-8.1V31.2c0-1.4-0.2-2.3-0.6-2.8c-0.4-0.5-1.1-0.8-1.9-0.8  c-1.6,0-3.2,1.2-4.7,3.5v18.6h-8.1V22.5h7.1l0.6,3.2c1.2-1.4,2.4-2.4,3.8-3.1c1.3-0.7,2.9-1,4.5-1C37.8,21.7,39.6,22.4,40.9,23.8"/>
<path class="st1" d="M89.4,36.1c0-4.6-1.2-8.1-3.5-10.7c-2.4-2.5-5.6-3.8-9.8-3.8c-2.7,0-5.1,0.6-7.1,1.8c-2,1.2-3.5,2.9-4.6,5  c-1.1,2.2-1.6,4.7-1.6,7.6c0,4.6,1.2,8.1,3.6,10.7c2.4,2.5,5.6,3.8,9.7,3.8c2.7,0,5.1-0.6,7.1-1.8c2-1.2,3.5-2.9,4.6-5  C88.9,41.6,89.4,39,89.4,36.1z M71.2,36.1c0-2.9,0.4-5,1.2-6.4c0.8-1.4,2-2.1,3.7-2.1c1.7,0,2.9,0.7,3.7,2c0.8,1.4,1.2,3.5,1.2,6.5  c0,2.9-0.4,5-1.2,6.4c-0.8,1.4-2,2.1-3.7,2.1c-1.7,0-2.9-0.7-3.7-2C71.6,41.2,71.2,39,71.2,36.1z"/>
<path class="st0" d="M67.2,22.5H56.7v-2.1c0-1.3,0.3-2.2,0.8-2.8c0.5-0.5,1.3-0.8,2.5-0.8c1.5,0,2.9,0.3,4.2,1l2.2-5.3  c-2.2-1.2-4.7-1.7-7.4-1.7c-3.3,0-5.9,0.9-7.7,2.6c-1.8,1.7-2.7,3.9-2.7,6.7v2.4H42c1.3,1.5,2,3.4,2.3,5.6h4.4v21.5h8.1V28.1h6.2  c0.1-0.2,0.2-0.5,0.3-0.7C64.2,25.5,65.6,23.8,67.2,22.5"/>
<path class="st0" d="M108.5,29.9c-1-0.2-1.8-0.4-2.5-0.4c-1.6,0-2.8,0.6-3.7,1.7c-0.8,1.1-1.5,2.8-2,5v13.4h-8.1V22.5h7.1l0.7,5.3  c0.6-1.9,1.5-3.4,2.8-4.4c1.2-1.1,2.7-1.6,4.2-1.6c0.5,0,1,0,1.4,0.1V29.9z"/>
<path class="st0" d="M146.1,23.8c1.3,1.4,1.9,3.5,1.9,6v19.8H140V31.2c0-2.4-0.8-3.6-2.3-3.6c-0.9,0-1.6,0.3-2.2,0.9  c-0.6,0.6-1.3,1.5-1.9,2.7v18.6h-8.1V31.2c0-2.4-0.8-3.6-2.3-3.6c-0.8,0-1.6,0.3-2.2,0.9c-0.7,0.6-1.3,1.5-1.9,2.6v18.6H111V21.8  h7.1l0.6,3.8c1.1-1.4,2.2-2.4,3.5-3c1.3-0.7,2.7-1,4.4-1c1.5,0,2.9,0.4,4,1.1c1.1,0.7,1.9,1.8,2.4,3.2c1.1-1.5,2.3-2.5,3.6-3.2  c1.3-0.7,2.8-1,4.5-1C143.1,21.7,144.9,22.4,146.1,23.8"/>
<path class="st1" d="M158.6,27.9c-1.2,0.2-2.4,0.6-3.7,1v-6c1.1-0.3,2.1-0.6,3.2-0.8c1.8-0.3,3.4-0.5,5-0.5c3.9,0,6.7,0.8,8.5,2.4  c1.8,1.6,2.7,4,2.7,7.2v10.5c0,1,0.1,1.8,0.4,2.3c0.3,0.5,0.8,0.8,1.4,1.1l-1.7,5.3c-1.7-0.1-3-0.5-4.1-1.1  c-1.1-0.6-1.9-1.5-2.5-2.8c-1.8,2.7-4.5,4.1-8.2,4.1c-2.7,0-4.8-0.8-6.4-2.4c-1.6-1.6-2.4-3.6-2.4-6.1c0-3,1.1-5.2,3.3-6.8  c2.2-1.6,5.3-2.3,9.5-2.3h2.8v-1.2c0-1.6-0.3-2.7-1-3.3c-0.7-0.6-1.9-0.9-3.6-0.9C160.9,27.5,159.9,27.7,158.6,27.9z M162.1,44.8  c1.8,0,3.3-0.9,4.3-2.6v-4.8h-2c-1.8,0-3.2,0.3-4.1,1c-0.9,0.6-1.4,1.7-1.4,3c0,1.1,0.3,1.9,0.8,2.5  C160.4,44.5,161.1,44.8,162.1,44.8z"/>
<path class="st0" d="M193.2,43.3c-1,0.6-2,0.9-2.9,0.9c-0.9,0-1.5-0.3-1.9-0.8c-0.4-0.5-0.6-1.4-0.6-2.7V28.1h5.4v-5.6h-5.4v-6.8  l-8.1,0.9v5.9h-7.2c1.5,1.4,2.5,3.3,3,5.6h4.2v12.6c0,6.5,3,9.8,8.9,9.8c1.3,0,2.6-0.2,3.9-0.6c1.3-0.4,2.5-0.9,3.5-1.6L193.2,43.3z  "/>
<defs>
	<filter id="Adobe_OpacityMaskFilter" filterUnits="userSpaceOnUse" x="197.9" y="9.6" width="9.6" height="40.1">
		<feColorMatrix type="matrix" values="1 0 0 0 0  0 1 0 0 0  0 0 1 0 0  0 0 0 1 0"/>
	</filter>
</defs>
<mask maskUnits="userSpaceOnUse" x="197.9" y="9.6" width="9.6" height="40.1" id="mask0_1263_1932_00000173125103816486295380000016982419195324637885_">
	<path class="st2" d="M5.6,50.5h251.1V9.6H5.6V50.5z"/>
</mask>
<g class="st3">
	<path class="st1" d="M207.5,14.2c0-1.3-0.5-2.4-1.4-3.3c-0.9-0.9-2.1-1.3-3.5-1.3s-2.5,0.4-3.4,1.3c-0.9,0.9-1.3,2-1.3,3.3   c0,1.3,0.4,2.4,1.3,3.3c0.9,0.9,2,1.3,3.4,1.3s2.5-0.4,3.5-1.3C207,16.6,207.5,15.5,207.5,14.2z M206.7,49.7h-8.1V22.5h8.1V49.7z"/>
</g>
<defs>
	
		<filter id="Adobe_OpacityMaskFilter_00000137820872219608170740000002182627348095998872_" filterUnits="userSpaceOnUse" x="210.1" y="21.7" width="22.6" height="28.9">
		<feColorMatrix type="matrix" values="1 0 0 0 0  0 1 0 0 0  0 0 1 0 0  0 0 0 1 0"/>
	</filter>
</defs>
<mask maskUnits="userSpaceOnUse" x="210.1" y="21.7" width="22.6" height="28.9" id="mask1_1263_1932_00000054237710931910298380000010930080250495150999_">
	
		<path style="fill-rule:evenodd;clip-rule:evenodd;fill:#FFFFFF;filter:url(#Adobe_OpacityMaskFilter_00000137820872219608170740000002182627348095998872_);" d="   M5.6,50.5h251.1V9.6H5.6V50.5z"/>
</mask>
<g class="st5">
	<path class="st0" d="M228.5,22.5c1.5,0.5,2.9,1.4,4.2,2.5l-3.5,4.8c-1.7-1.3-3.4-1.9-5.2-1.9c-1.8,0-3.2,0.7-4.1,2   c-0.9,1.3-1.4,3.5-1.4,6.4c0,2.9,0.5,4.9,1.4,6.1c0.9,1.2,2.2,1.8,4,1.8c0.9,0,1.8-0.1,2.5-0.4c0.8-0.3,1.7-0.8,2.7-1.4l3.5,5   c-2.7,2.1-5.7,3.2-9.2,3.2c-2.8,0-5.1-0.6-7.2-1.8c-2-1.2-3.6-2.8-4.7-5c-1.1-2.1-1.6-4.6-1.6-7.5c0-2.9,0.5-5.4,1.6-7.6   c1.1-2.2,2.6-3.9,4.7-5.2c2-1.2,4.3-1.9,7-1.9C225.3,21.7,227,21.9,228.5,22.5"/>
</g>
<defs>
	
		<filter id="Adobe_OpacityMaskFilter_00000011027609810826157510000009111436468826421684_" filterUnits="userSpaceOnUse" x="233.3" y="21.7" width="23.4" height="28.9">
		<feColorMatrix type="matrix" values="1 0 0 0 0  0 1 0 0 0  0 0 1 0 0  0 0 0 1 0"/>
	</filter>
</defs>
<mask maskUnits="userSpaceOnUse" x="233.3" y="21.7" width="23.4" height="28.9" id="mask2_1263_1932_00000126305517788140049790000017890113333726709906_">
	
		<path style="fill-rule:evenodd;clip-rule:evenodd;fill:#FFFFFF;filter:url(#Adobe_OpacityMaskFilter_00000011027609810826157510000009111436468826421684_);" d="   M5.6,50.5h251.1V9.6H5.6V50.5z"/>
</mask>
<g class="st7">
	<path class="st0" d="M251.2,22.5c1.7,0.6,3.2,1.4,4.5,2.5l-3,4.6c-2.2-1.4-4.4-2.1-6.7-2.1c-1.1,0-1.9,0.2-2.4,0.5   c-0.6,0.4-0.8,0.9-0.8,1.5c0,0.5,0.1,0.9,0.4,1.3c0.3,0.3,0.8,0.7,1.6,1c0.8,0.3,2,0.8,3.6,1.2c2.8,0.8,4.9,1.9,6.3,3.2   c1.4,1.3,2.1,3.1,2.1,5.4c0,1.8-0.5,3.4-1.6,4.8c-1.1,1.3-2.5,2.4-4.3,3.1c-1.8,0.7-3.9,1.1-6.1,1.1c-2.3,0-4.4-0.4-6.4-1.1   c-2-0.7-3.6-1.7-5-3l3.9-4.4c2.3,1.8,4.7,2.7,7.2,2.7c1.2,0,2.2-0.2,2.9-0.7c0.7-0.4,1-1.1,1-1.9c0-0.6-0.1-1.2-0.4-1.5   c-0.3-0.4-0.8-0.7-1.6-1c-0.8-0.3-2-0.7-3.7-1.2c-2.7-0.8-4.7-1.9-6-3.3c-1.3-1.4-2-3.1-2-5.2c0-1.6,0.5-3,1.4-4.2   c0.9-1.2,2.2-2.2,3.9-3c1.7-0.7,3.6-1.1,5.9-1.1C247.7,21.7,249.5,21.9,251.2,22.5"/>
</g>
<defs>
	
		<filter id="Adobe_OpacityMaskFilter_00000005957735677434843270000001335544786372754336_" filterUnits="userSpaceOnUse" x="5.6" y="14.2" width="8.4" height="35.4">
		<feColorMatrix type="matrix" values="1 0 0 0 0  0 1 0 0 0  0 0 1 0 0  0 0 0 1 0"/>
	</filter>
</defs>
<mask maskUnits="userSpaceOnUse" x="5.6" y="14.2" width="8.4" height="35.4" id="mask3_1263_1932_00000038407373708424257050000015802909286605128862_">
	
		<path style="fill-rule:evenodd;clip-rule:evenodd;fill:#FFFFFF;filter:url(#Adobe_OpacityMaskFilter_00000005957735677434843270000001335544786372754336_);" d="   M5.6,50.5h251.1V9.6H5.6V50.5z"/>
</mask>
<g class="st9">
	<path class="st0" d="M5.6,49.7H14V14.2H5.6V49.7z"/>
</g>
<g>
	<path class="st0" d="M275.2,43.7c0,1.3-0.2,2.4-0.7,3.4c-0.5,1-1.1,1.7-2,2.3c-0.9,0.5-1.8,0.8-2.9,0.8c-1.1,0-2.1-0.3-2.9-0.8   c-0.9-0.5-1.5-1.3-2-2.2c-0.5-1-0.7-2.1-0.7-3.4v-0.6c0-1.3,0.2-2.4,0.7-3.4c0.5-1,1.1-1.7,2-2.3c0.9-0.5,1.8-0.8,2.9-0.8   s2.1,0.3,2.9,0.8c0.9,0.5,1.5,1.3,2,2.3c0.5,1,0.7,2.1,0.7,3.4V43.7z M272.5,43.1c0-1.4-0.2-2.4-0.7-3.1c-0.5-0.7-1.2-1.1-2.1-1.1   c-0.9,0-1.6,0.4-2.1,1.1c-0.5,0.7-0.7,1.7-0.7,3.1v0.6c0,1.3,0.2,2.4,0.7,3.1c0.5,0.7,1.2,1.1,2.1,1.1c0.9,0,1.6-0.4,2.1-1.1   c0.5-0.7,0.7-1.8,0.7-3.1V43.1z"/>
	<path class="st0" d="M279.4,40.2l0.1,1.1c0.7-0.9,1.6-1.3,2.8-1.3c1,0,1.8,0.3,2.3,0.9c0.5,0.6,0.8,1.5,0.8,2.7V50h-2.6v-6.2   c0-0.6-0.1-1-0.4-1.2c-0.2-0.2-0.6-0.4-1.2-0.4c-0.7,0-1.3,0.3-1.7,0.9V50h-2.6v-9.8H279.4z"/>
	<path class="st0" d="M290.1,50h-2.6V36.1h2.6V50z"/>
	<path class="st0" d="M292.2,37.7c0-0.4,0.1-0.7,0.4-1s0.6-0.4,1.1-0.4c0.4,0,0.8,0.1,1.1,0.4s0.4,0.6,0.4,1c0,0.4-0.1,0.7-0.4,1   c-0.3,0.3-0.6,0.4-1.1,0.4s-0.8-0.1-1.1-0.4C292.4,38.4,292.2,38.1,292.2,37.7z M295,50h-2.6v-9.8h2.6V50z"/>
	<path class="st0" d="M299.6,40.2l0.1,1.1c0.7-0.9,1.6-1.3,2.8-1.3c1,0,1.8,0.3,2.3,0.9c0.5,0.6,0.8,1.5,0.8,2.7V50h-2.6v-6.2   c0-0.6-0.1-1-0.4-1.2c-0.2-0.2-0.6-0.4-1.2-0.4c-0.7,0-1.3,0.3-1.7,0.9V50h-2.6v-9.8H299.6z"/>
	<path class="st0" d="M312,50.2c-1.4,0-2.6-0.4-3.5-1.3c-0.9-0.9-1.3-2-1.3-3.5v-0.3c0-1,0.2-1.9,0.6-2.6s0.9-1.4,1.6-1.8   s1.5-0.6,2.4-0.6c1.3,0,2.4,0.4,3.2,1.3c0.8,0.8,1.2,2,1.2,3.6V46h-6.2c0.1,0.6,0.3,1.1,0.8,1.5c0.4,0.4,1,0.6,1.6,0.6   c1,0,1.8-0.4,2.4-1.1l1.3,1.4c-0.4,0.6-0.9,1-1.6,1.3C313.6,50,312.8,50.2,312,50.2z M311.7,42.2c-0.5,0-0.9,0.2-1.3,0.5   c-0.3,0.4-0.5,0.9-0.6,1.5h3.6V44c0-0.6-0.2-1-0.5-1.3S312.3,42.2,311.7,42.2z"/>
</g>
</svg>